<?xml version="1.0" encoding="UTF-8" standalone="no"?>
<svg
   xmlns:dc="http://purl.org/dc/elements/1.1/"
   xmlns:cc="http://creativecommons.org/ns#"
   xmlns:rdf="http://www.w3.org/1999/02/22-rdf-syntax-ns#"
   xmlns:svg="http://www.w3.org/2000/svg"
   xmlns="http://www.w3.org/2000/svg"
   xmlns:sodipodi="http://sodipodi.sourceforge.net/DTD/sodipodi-0.dtd"
   xmlns:inkscape="http://www.inkscape.org/namespaces/inkscape"
   inkscape:version="1.0beta2 (af49c19, 2020-01-26)"
   sodipodi:docname="not_2.svg"
   id="svg6"
   version="1.1"
   width="24"
   viewBox="-10 -10 20 20"
   height="24">
  <metadata
     id="metadata12">
    <rdf:RDF>
      <cc:Work
         rdf:about="">
        <dc:format>image/svg+xml</dc:format>
        <dc:type
           rdf:resource="http://purl.org/dc/dcmitype/StillImage" />
        <dc:title></dc:title>
      </cc:Work>
    </rdf:RDF>
  </metadata>
  <defs
     id="defs10" />
  <sodipodi:namedview
     viewbox-y="-10"
     viewbox-x="-10"
     inkscape:current-layer="svg6"
     inkscape:window-maximized="0"
     inkscape:window-y="95"
     inkscape:window-x="3265"
     inkscape:cy="3.0835774"
     inkscape:cx="12.537068"
     inkscape:zoom="27.812867"
     showgrid="false"
     id="namedview8"
     inkscape:window-height="1636"
     inkscape:window-width="1927"
     inkscape:pageshadow="2"
     inkscape:pageopacity="0"
     guidetolerance="10"
     gridtolerance="10"
     objecttolerance="10"
     borderopacity="1"
     bordercolor="#666666"
     pagecolor="#ffffff" />
  <path
     inkscape:connector-curvature="0"
     id="path4"
     d="m 0,-10 c -5.52,0 -10,4.48 -10,10 0,5.52 4.48,10 10,10 C 5.52,10 10,5.52 10,0 10,-5.52 5.52,-10 0,-10 Z M 0,8 c -4.42,0 -8,-3.58 -8,-8 0,-1.85 0.63,-3.55 1.69,-4.9 L 4.9,6.31 C 3.55,7.37 1.85,8 0,8 Z M 6.31,4.9 -4.9,-6.31 C -3.55,-7.37 -1.85,-8 0,-8 4.42,-8 8,-4.42 8,0 8,1.85 7.37,3.55 6.31,4.9 Z" />
</svg>
